<?xml version="1.0" encoding="UTF-8" standalone="no"?>
<!-- Generator: Adobe Illustrator 16.0.0, SVG Export Plug-In . SVG Version: 6.00 Build 0)  -->

<svg
   xmlns:dc="http://purl.org/dc/elements/1.1/"
   xmlns:cc="http://creativecommons.org/ns#"
   xmlns:rdf="http://www.w3.org/1999/02/22-rdf-syntax-ns#"
   xmlns:svg="http://www.w3.org/2000/svg"
   xmlns="http://www.w3.org/2000/svg"
   xmlns:sodipodi="http://sodipodi.sourceforge.net/DTD/sodipodi-0.dtd"
   xmlns:inkscape="http://www.inkscape.org/namespaces/inkscape"
   version="1.1"
   id="Capa_1"
   x="0px"
   y="0px"
   width="300"
   height="100"
   viewBox="0 0 300 100"
   xml:space="preserve"
   sodipodi:docname="book-with-apple.svg"
   inkscape:export-filename="/var/www/html/hilir/hilir-ilmu-bg-n.png"
   inkscape:export-xdpi="125.24046"
   inkscape:export-ydpi="125.24046"
   inkscape:version="0.92.4 (unknown)"><metadata
   id="metadata47"><rdf:RDF><cc:Work
       rdf:about=""><dc:format>image/svg+xml</dc:format><dc:type
         rdf:resource="http://purl.org/dc/dcmitype/StillImage" /><dc:title /></cc:Work></rdf:RDF></metadata><defs
   id="defs45" /><sodipodi:namedview
   pagecolor="#ffffff"
   bordercolor="#666666"
   borderopacity="1"
   objecttolerance="10"
   gridtolerance="10"
   guidetolerance="10"
   inkscape:pageopacity="0"
   inkscape:pageshadow="2"
   inkscape:window-width="1920"
   inkscape:window-height="1025"
   id="namedview43"
   showgrid="false"
   inkscape:zoom="2.36"
   inkscape:cx="-56.521547"
   inkscape:cy="44.404488"
   inkscape:window-x="0"
   inkscape:window-y="27"
   inkscape:window-maximized="1"
   inkscape:current-layer="Capa_1" />

<rect
   style="fill:none;fill-opacity:1;stroke:none;stroke-opacity:1"
   id="rect849"
   width="100"
   height="100"
   x="2.5423727"
   y="-0.42372894" /><g
   id="g12"
   transform="translate(0,50)">
</g>
<g
   id="g14"
   transform="translate(0,50)">
</g>
<g
   id="g16"
   transform="translate(0,50)">
</g>
<g
   id="g18"
   transform="translate(0,50)">
</g>
<g
   id="g20"
   transform="translate(0,50)">
</g>
<g
   id="g22"
   transform="translate(0,50)">
</g>
<g
   id="g24"
   transform="translate(0,50)">
</g>
<g
   id="g26"
   transform="translate(0,50)">
</g>
<g
   id="g28"
   transform="translate(0,50)">
</g>
<g
   id="g30"
   transform="translate(0,50)">
</g>
<g
   id="g32"
   transform="translate(0,50)">
</g>
<g
   id="g34"
   transform="translate(0,50)">
</g>
<g
   id="g36"
   transform="translate(0,50)">
</g>
<g
   id="g38"
   transform="translate(0,50)">
</g>
<g
   id="g40"
   transform="translate(0,50)">
</g>
<g
   id="g10"
   transform="matrix(1.3830039,0,0,1.3830039,16.117639,14.046505)"
   style="fill:#ffffff"
   inkscape:export-xdpi="125.24046"
   inkscape:export-ydpi="125.24046"><g
     id="g8"
     style="fill:#ffffff"><path
       d="m 25.003,30.75 c 7.435,3.218 12.28,-7.191 12.28,-13.974 0,-6.549 -5.038,-10.39 -11.581,-7.503 1.013,-1.688 3.094,-4.722 5.741,-6.276 L 28.124,1.448 c -1.837,1.917 -3.249,5.768 -3.896,7.766 -5.899,-2.667 -11.5,1.067 -11.5,7.562 10e-4,6.782 5.22,17.084 12.275,13.974 z M 21.399,11.091 c -4.13,4.096 -4.376,10.679 -1.052,16.574 -3.073,-2.818 -4.668,-6.191 -4.668,-10.155 10e-4,-3.796 2.518,-6.358 5.72,-6.419 z"
       id="path2"
       inkscape:connector-curvature="0"
       style="fill:#ffffff" /><path
       d="m 24.998,7.024 c 0,0 0.27,-3.27 -1.58,-5.12 -1.853,-1.851 -5.119,-1.579 -5.119,-1.579 0,0 -0.274,3.271 1.578,5.122 1.85,1.849 5.121,1.577 5.121,1.577 z"
       id="path4"
       inkscape:connector-curvature="0"
       style="fill:#ffffff" /><path
       d="M 50,35.35 V 31.354 H 9.168 C 4.115,31.354 0,35.465 0,40.521 c 0,5.054 4.115,9.168 9.168,9.168 H 50 v -3.996 c -0.582,0 -1.996,-1.813 -1.996,-5.172 0,-3.359 1.414,-5.171 1.996,-5.171 z M 9.168,41.18 44.066,41.179 c 0.072,1.68 0.369,3.23 0.92,4.515 H 9.168 c -2.851,0 -5.173,-2.322 -5.173,-5.172 0,-2.851 2.322,-5.171 5.173,-5.171 h 35.818 c -0.551,1.28 -0.848,2.835 -0.92,4.511 L 9.168,39.863 c -0.363,0 -0.66,0.294 -0.66,0.658 0,0.363 0.297,0.659 0.66,0.659 z"
       id="path6"
       inkscape:connector-curvature="0"
       style="fill:#ffffff" /></g></g>

</svg>